Run_40001
nRows=4
nColumns=161

# SIMM Motion File Header:
name Run_40001
datacolumns 161
datarows 4
otherdata 1
range 2.75833300 2.78333300
endheader
time	pelvis_tilt	pelvis_list	pelvis_rotation	pelvis_tx	pelvis_ty	pelvis_tz	hip_flexion_r	hip_adduction_r	hip_rotation_r	knee_angle_r	ankle_angle_r	hip_flexion_l	hip_adduction_l	hip_rotation_l	knee_angle_l	ankle_angle_l	lumbar_extension	lumbar_bending	lumbar_rotation	arm_flex_r	arm_add_r	arm_rot_r	elbow_flex_r	pro_sup_r	arm_flex_l	arm_add_l	arm_rot_l	elbow_flex_l	pro_sup_l	subtalar_angle_r	mtp_angle_r	subtalar_angle_l	mtp_angle_l	wrist_flex_r	wrist_dev_r	wrist_flex_l	wrist_dev_l	LASI_tx	LASI_ty	LASI_tz	RASI_tx	RASI_ty	RASI_tz	LPSI_tx	LPSI_ty	LPSI_tz	RPSI_tx	RPSI_ty	RPSI_tz	RTH1_tx	RTH1_ty	RTH1_tz	RTH3_tx	RTH3_ty	RTH3_tz	LTH1_tx	LTH1_ty	LTH1_tz	LTH2_tx	LTH2_ty	LTH2_tz	LTH3_tx	LTH3_ty	LTH3_tz	RTB1_tx	RTB1_ty	RTB1_tz	RTB2_tx	RTB2_ty	RTB2_tz	RTB3_tx	RTB3_ty	RTB3_tz	LTB1_tx	LTB1_ty	LTB1_tz	LTB2_tx	LTB2_ty	LTB2_tz	LTB3_tx	LTB3_ty	LTB3_tz	RCAL_tx	RCAL_ty	RCAL_tz	RTOE_tx	RTOE_ty	RTOE_tz	RMT5_tx	RMT5_ty	RMT5_tz	LCAL_tx	LCAL_ty	LCAL_tz	LTOE_tx	LTOE_ty	LTOE_tz	LMT5_tx	LMT5_ty	LMT5_tz	LACR_tx	LACR_ty	LACR_tz	RACR_tx	RACR_ty	RACR_tz	CLAV_tx	CLAV_ty	CLAV_tz	C7_tx	C7_ty	C7_tz	RUA1_tx	RUA1_ty	RUA1_tz	RUA2_tx	RUA2_ty	RUA2_tz	RUA3_tx	RUA3_ty	RUA3_tz	RLEL_tx	RLEL_ty	RLEL_tz	RMEL_tx	RMEL_ty	RMEL_tz	LUA1_tx	LUA1_ty	LUA1_tz	LUA2_tx	LUA2_ty	LUA2_tz	LUA3_tx	LUA3_ty	LUA3_tz	LLEL_tx	LLEL_ty	LLEL_tz	LMEL_tx	LMEL_ty	LMEL_tz	RFAsuperior_tx	RFAsuperior_ty	RFAsuperior_tz	RFAradius_tx	RFAradius_ty	RFAradius_tz	RFAulna_tx	RFAulna_ty	RFAulna_tz	LFAsuperior_tx	LFAsuperior_ty	LFAsuperior_tz	LFAradius_tx	LFAradius_ty	LFAradius_tz	LFAulna_tx	LFAulna_ty	LFAulna_tz
      2.75833300	     -6.96398562	      1.61188015	      1.36603442	      0.94841805	      1.00728728	     -0.32535592	    -21.10986585	      1.42805838	     -0.67292079	    -35.36870771	    -20.01690310	     35.31877961	      9.62414582	     14.36502281	    -14.56848435	      8.61877511	     -0.55128397	     -1.26924104	     10.94457702	    -25.76612685	    -25.35380172	      1.57877781	    110.72249708	    101.79714028	    -53.65586558	    -24.90472766	     -3.20785100	    105.94819064	    122.72813375	      0.00000000	      0.00000000	      0.00000000	      0.00000000	      0.00000000	      0.00000000	      0.00000000	      0.00000000	      0.95478749	      1.04381960	     -0.43787210	      0.96523003	      1.02223447	     -0.21142190	      0.79887275	      1.08287789	     -0.36597337	      0.80198729	      1.08744740	     -0.26935160	      0.83718296	      0.88401859	     -0.15011232	      0.71338848	      0.64995064	     -0.19510077	      0.95341283	      0.86373501	     -0.49461977	      1.05456611	      0.79191376	     -0.46555483	      1.04103584	      0.66320573	     -0.43214099	      0.56922977	      0.46197475	     -0.25387039	      0.49597761	      0.47258064	     -0.19207595	      0.44953077	      0.41911899	     -0.25356044	      1.15606456	      0.47627548	     -0.34182258	      1.14024129	      0.39352938	     -0.41561831	      1.17636525	      0.30867616	     -0.33594173	      0.27046053	      0.44854777	     -0.25031726	      0.30064346	      0.24598517	     -0.30453658	      0.26564347	      0.24823453	     -0.21398200	      1.11501153	      0.13492917	     -0.34051691	      1.30015395	      0.21603906	     -0.28897196	      1.31306659	      0.18472195	     -0.37403633	      0.87636620	      1.50882112	     -0.49811510	      0.95380732	      1.50031157	     -0.12449879	      0.97955306	      1.49036661	     -0.30616116	      0.85202290	      1.54372229	     -0.31413403	      0.91761577	      1.37133077	     -0.05942169	      0.84179364	      1.36615602	     -0.05645315	      0.88847186	      1.30082303	     -0.01524148	      0.86355817	      1.23174807	      0.00505249	      0.81400180	      1.21050718	     -0.05950477	      0.77111402	      1.43712592	     -0.55466124	      0.69810109	      1.42649229	     -0.52521142	      0.72198482	      1.36787255	     -0.57666927	      0.64312085	      1.32802391	     -0.59258410	      0.62143784	      1.33090086	     -0.50937817	      0.96608802	      1.20214815	     -0.06412421	      1.03015706	      1.18339340	     -0.16580567	      1.03732872	      1.12373055	     -0.12867361	      0.72487444	      1.22760057	     -0.58287822	      0.80916664	      1.16399032	     -0.50431995	      0.78549981	      1.12888520	     -0.55840120
      2.76666700	     -6.20523178	      1.36515427	      1.63639763	      0.94853439	      1.00586786	     -0.32514414	    -20.00576952	      1.28190651	     -2.03316387	    -42.04165478	    -19.21366308	     33.39366958	      9.44892133	     14.48264291	    -11.99994007	      8.15858986	     -1.56035734	     -1.11198773	     10.18650665	    -25.93657362	    -25.18220108	      1.84701337	    109.20925319	    101.44499078	    -53.02492433	    -24.31105101	     -3.57804735	    105.67529665	    122.36112375	      0.00000000	      0.00000000	      0.00000000	      0.00000000	      0.00000000	      0.00000000	      0.00000000	      0.00000000	      0.95348712	      1.04260285	     -0.43670785	      0.96540719	      1.02177084	     -0.21039333	      0.79741736	      1.07926431	     -0.36546916	      0.80254079	      1.08439853	     -0.26962630	      0.84172791	      0.87963958	     -0.14988633	      0.72243972	      0.64245381	     -0.19270524	      0.95112545	      0.85944569	     -0.49551700	      1.04963899	      0.78400622	     -0.46640794	      1.03453819	      0.65700713	     -0.43045211	      0.57318388	      0.46269576	     -0.24959256	      0.49999519	      0.48047256	     -0.18947570	      0.45033026	      0.42971762	     -0.25125295	      1.15209532	      0.47172600	     -0.33890364	      1.13677475	      0.38849705	     -0.41290344	      1.17640807	      0.30496886	     -0.33292521	      0.27350396	      0.47388776	     -0.24906470	      0.28891203	      0.26822187	     -0.29841263	      0.25382333	      0.27537502	     -0.20823110	      1.11879809	      0.12989397	     -0.33581671	      1.30260376	      0.21451503	     -0.28591716	      1.31562091	      0.18276202	     -0.37073076	      0.87814917	      1.50684382	     -0.49908776	      0.95312019	      1.49820588	     -0.12468969	      0.97988649	      1.48812152	     -0.30615773	      0.85277763	      1.54239322	     -0.31519374	      0.91526147	      1.36956445	     -0.05969257	      0.83943398	      1.36485780	     -0.05724969	      0.88546467	      1.29871307	     -0.01609397	      0.85964456	      1.23040566	      0.00432852	      0.81050441	      1.20988240	     -0.06067220	      0.77278697	      1.43348327	     -0.55539018	      0.70006201	      1.42216055	     -0.52546702	      0.72446582	      1.36351016	     -0.57651961	      0.64596187	      1.32286952	     -0.59235742	      0.62458126	      1.32548727	     -0.50887256	      0.96216290	      1.19631640	     -0.06299302	      1.02672494	      1.17440269	     -0.16385773	      1.03125356	      1.11499248	     -0.12595848	      0.72824286	      1.22261088	     -0.58306861	      0.81323121	      1.15937383	     -0.50519218	      0.78919466	      1.12399945	     -0.55900460
      2.77500000	     -5.46442965	      1.19032020	      1.99535641	      0.94846133	      1.00370760	     -0.32492002	    -18.78546255	      1.13613827	     -3.06430504	    -48.78723119	    -18.27380293	     31.74842382	      9.47862697	     14.10308036	    -10.59235740	      8.05164780	     -2.59312265	     -1.06689126	      9.28788092	    -26.19089471	    -24.91065131	      2.09079078	    107.47815318	    100.88884369	    -52.27202065	    -23.77840033	     -3.88575612	    105.38406034	    121.74181554	      0.00000000	      0.00000000	      0.00000000	      0.00000000	      0.00000000	      0.00000000	      0.00000000	      0.00000000	      0.95197578	      1.04060395	     -0.43587121	      0.96543501	      1.02016237	     -0.20969033	      0.79584910	      1.07493576	     -0.36486966	      0.80270548	      1.08036670	     -0.26953986	      0.84729045	      0.87375382	     -0.14893568	      0.73181391	      0.63456157	     -0.19012449	      0.94886848	      0.85447397	     -0.49491577	      1.04467850	      0.77627784	     -0.46635788	      1.02903011	      0.65144042	     -0.42847796	      0.57875202	      0.46343388	     -0.24619069	      0.50709665	      0.48685646	     -0.18737573	      0.45392992	      0.44026373	     -0.24966587	      1.14749776	      0.46652372	     -0.33659999	      1.13114961	      0.38253737	     -0.41010708	      1.17341712	      0.30016662	     -0.32989025	      0.28045583	      0.49878435	     -0.24850860	      0.28072293	      0.29111624	     -0.29248424	      0.24675020	      0.30341877	     -0.20253987	      1.11709205	      0.12439335	     -0.32993132	      1.30107721	      0.21055222	     -0.28391279	      1.31285522	      0.17814546	     -0.36861406	      0.88018058	      1.50400992	     -0.50010440	      0.95243745	      1.49539226	     -0.12512318	      0.98020012	      1.48493397	     -0.30621513	      0.85353942	      1.54039167	     -0.31644146	      0.91251662	      1.36740004	     -0.06011869	      0.83670442	      1.36338384	     -0.05848308	      0.88185559	      1.29616981	     -0.01732018	      0.85487571	      1.22864623	      0.00342022	      0.80612839	      1.20881240	     -0.06199838	      0.77483040	      1.42887958	     -0.55617229	      0.70233769	      1.41686088	     -0.52633337	      0.72765628	      1.35787839	     -0.57673295	      0.64947386	      1.31637872	     -0.59245509	      0.62818041	      1.31903343	     -0.50879088	      0.95713305	      1.18957445	     -0.06179050	      1.02244338	      1.16388682	     -0.16131879	      1.02382261	      1.10476196	     -0.12270222	      0.73229649	      1.21628023	     -0.58343405	      0.81805538	      1.15370632	     -0.50609949	      0.79354387	      1.11792916	     -0.55952012
      2.78333300	     -4.79031698	      1.05527411	      2.36919126	      0.94799400	      1.00074657	     -0.32466514	    -17.34790038	      1.00492267	     -3.82628821	    -55.61855441	    -17.22152702	     30.43584055	      9.65192982	     13.39293890	    -10.28634983	      8.44978870	     -3.60529123	     -1.08157169	      8.34344587	    -26.52956707	    -24.57244827	      2.30557811	    105.56093358	    100.23721576	    -51.36401069	    -23.31970448	     -4.09098748	    105.05967363	    121.03604306	      0.00000000	      0.00000000	      0.00000000	      0.00000000	      0.00000000	      0.00000000	      0.00000000	      0.00000000	      0.95025282	      1.03749903	     -0.43545222	      0.96509974	      1.01750538	     -0.20934519	      0.79422674	      1.07000808	     -0.36421542	      0.80188520	      1.07555264	     -0.26896105	      0.85311479	      0.86699160	     -0.14764026	      0.74141435	      0.62617449	     -0.18735294	      0.94676980	      0.84892765	     -0.49328326	      1.04029247	      0.76917008	     -0.46558647	      1.02430968	      0.64627553	     -0.42618885	      0.58603665	      0.46378689	     -0.24375023	      0.51666657	      0.49160529	     -0.18562729	      0.46026524	      0.45060507	     -0.24857562	      1.14222680	      0.46051437	     -0.33476966	      1.12413457	      0.37557601	     -0.40709149	      1.16747555	      0.29404015	     -0.32661260	      0.29140741	      0.52269326	     -0.24846927	      0.27631501	      0.31438229	     -0.28713350	      0.24473195	      0.33160723	     -0.19711183	      1.11029360	      0.11799644	     -0.32310041	      1.29565607	      0.20452454	     -0.28280968	      1.30522419	      0.17108485	     -0.36736137	      0.88233772	      1.50020571	     -0.50116243	      0.95172406	      1.49180514	     -0.12574861	      0.98049196	      1.48087499	     -0.30634122	      0.85421887	      1.53757767	     -0.31786799	      0.90944687	      1.36465429	     -0.06072683	      0.83366232	      1.36168300	     -0.06007249	      0.87767463	      1.29314636	     -0.01891865	      0.84928506	      1.22642801	      0.00236931	      0.80092639	      1.20726288	     -0.06345748	      0.77718720	      1.42323106	     -0.55720772	      0.70483488	      1.41051794	     -0.52783574	      0.73144554	      1.35097305	     -0.57733433	      0.65351843	      1.30855707	     -0.59290203	      0.63208944	      1.31150069	     -0.50919200	      0.95095112	      1.18204403	     -0.06056646	      1.01704945	      1.15192309	     -0.15827257	      1.01495357	      1.09321683	     -0.11899547	      0.73690379	      1.20868484	     -0.58399929	      0.82344334	      1.14697702	     -0.50695246	      0.79850240	      1.11075210	     -0.55997909
